# xmcd
#
# Track frame offsets: 
#        150
#        19975
#        39587
#        56682
#        74254
#        88778
#        114758
#        140762
#        162861
#
# Disc length: 2430 seconds
#
# Revision: 0
# Processed by: cddbd v1.5.2PL0 Copyright (c) Steve Scherf et al.
# Submitted via: ExactAudioCopyFreeDBPlugin 1.0
#
DISCID=78097c09
DTITLE=BluesTransfusion - Whisky of the evening
DYEAR=2015
DGENRE=Blues
TTITLE0=Ride along
TTITLE1=She's a wonder
TTITLE2=Changin'
TTITLE3=Without you
TTITLE4=Downhill ride
TTITLE5=Lost love
TTITLE6=My child is growing
TTITLE7=Man of darkness
TTITLE8=Three-Tone Sunburst of Sonic Blue
EXTD=
EXTT0=
EXTT1=
EXTT2=
EXTT3=
EXTT4=
EXTT5=
EXTT6=
EXTT7=
EXTT8=
PLAYORDER=
